<?xml version="1.0" encoding="UTF-8"?>
<svg width="800px" height="800px" viewBox="0 0 800 800" version="1.1" xmlns="http://www.w3.org/2000/svg" xmlns:xlink="http://www.w3.org/1999/xlink">
    <title>photograph</title>
    <style>
    #p1 { stroke-dasharray: 135; stroke-dashoffset: 135; animation: dash1 5s linear infinite; }
    #p2 { stroke-dasharray: 2265; stroke-dashoffset: 2265; animation: dash2 5s linear infinite; }
    #p3 { stroke-dasharray: 135; stroke-dashoffset: 135; animation: dash3 5s linear infinite; }
    @keyframes dash1 { 0% { stroke-dashoffset: 135; } 3% { stroke-dashoffset: 0; } 100% { stroke-dashoffset: 0; } }
    @keyframes dash2 { 0% { stroke-dashoffset: 2265; } 3% { stroke-dashoffset: 2265; } 70% { stroke-dashoffset: 0; } 100% { stroke-dashoffset: 0; } }
    @keyframes dash3 { 0% { stroke-dashoffset: 135; } 70% { stroke-dashoffset: 135; } 73% { stroke-dashoffset: 0; } 100% { stroke-dashoffset: 0; } }
    </style>
    <g id="page1" stroke="none" stroke-width="1" fill="none" fill-rule="evenodd">
        <rect id="loading-bg" fill="#EEEEEE" x="0" y="0" width="800" height="800"></rect>
        <path d="M190.829946,359.280167 C192.37546,355.145075 193.888083,344.366839 192.372114,347.594249 C170.781766,393.55886 145.335999,454.325633 150.733586,459" id="p1" stroke="#666666" stroke-width="5" stroke-linecap="round" stroke-linejoin="round"></path>
        <path d="M171.266777,371.447074 C168.097789,374.611221 158.705594,376.099272 158.070232,371.447074 C155.74143,354.395281 212.008052,313.838644 225.605492,335.018245 C245.012176,365.246422 188.344659,427.252939 178.253183,417.951962 C171.785858,411.991242 217.726458,395.771687 225.605492,393.149355 C253.551116,383.848377 281.722932,322.341165 273.734068,329.592674 C265.195127,337.343489 227.934294,415.626717 224.052957,431.903428 C221.934994,440.785283 245.788443,396.249681 259.761255,396.249681 C267.523929,396.249681 265.195127,415.626717 269.076463,415.626717 C282.239885,415.626717 311.771168,386.948703 304.008494,392.374273 C292.601193,400.347185 288.797625,421.827369 296.245821,421.827369 C313.323702,421.827369 322.502267,388.51316 316.428772,383.848377 C306.337296,376.097562 287.631788,408.286171 316.428772,406.32574 C350.584535,404.000495 361.61593,346.623502 357.570941,356.720526 C354.465872,364.47134 330.505799,409.564806 339.716792,421.827369 C344.374396,428.028021 392.502972,386.948703 383.964031,392.374273 C377.561885,396.442142 365.333615,417.17688 374.648823,421.827369 C383.964031,426.477858 404.574179,388.25157 396.384309,383.848377 C386.292833,378.422807 364.07147,409.582627 396.384309,407.100821 C406.475785,406.32574 432.868874,390.049029 425.882468,391.599192 C418.896062,393.149355 397.950213,417.768203 406.475785,424.152613 C412.685923,428.803102 442.462086,379.718639 439.855281,386.948703 C432.868874,406.32574 408.028319,470.657501 397.936844,470.657501 C389.662012,470.657501 408.00943,446.746818 428.987538,425.702776 C449.336796,405.28956 472.274472,387.723784 468.577173,387.723784 C466.248371,387.723784 456.15575,422.501814 456.933162,420.277206 C466.646362,392.482353 520.695496,390.657407 518.258283,387.723784 C508.575457,376.068767 484.2054,411.886716 494.193995,415.626717 C500.404134,417.951962 512.824412,400.125088 512.824412,395.474599 C512.824412,393.525388 514.376946,415.626717 522.915887,414.076554 C541.104361,410.774611 563.867746,372.412175 556.295383,379.97297 C552.750966,383.511973 542.011814,403.445357 534.559897,424.152613 C525.691278,448.796579 520.332244,474.260868 521.363352,470.657501 C522.151424,467.903466 530.102938,442.560562 540.770036,420.277206 C551.117586,398.661378 563.847983,380.055026 568.715661,382.298214 C578.807136,386.948703 557.847918,428.803102 546.203908,427.252939 C534.559897,425.702776 556.623976,414.116187 583.46474,396.249681 C602.095157,383.848377 635.257835,316.995881 621.501841,332.693 C610.634098,345.094304 565.610591,450.505383 574.9258,432.678509 C579.527712,423.871652 601.356173,398.136052 609.85783,396.249681 C616.844237,394.699518 615.291702,414.076554 619.173039,415.626717 C623.39777,417.314028 634.006757,410.338295 651,394.699518" id="p2" stroke="#666666" stroke-width="5" stroke-linecap="round" stroke-linejoin="round"></path>
        <path d="M309,367 C346.865949,362.844096 378.592139,360.256944 404.178571,359.238544 C421.925472,358.532176 433.532615,359.39456 439,361.825696" id="p3" stroke="#666666" stroke-width="5" stroke-linecap="round" stroke-linejoin="round"></path>
    </g>
</svg>